<mxfile host="app.diagrams.net" modified="2024-02-20T20:48:52.408Z" agent="Mozilla/5.0 (Windows NT 10.0; Win64; x64) AppleWebKit/537.36 (KHTML, like Gecko) Chrome/121.0.0.0 Safari/537.36" etag="hgYH2wusn_z2NOOTujKT" version="23.1.5" type="github">
  <diagram name="Página-1" id="ZsuTjdy9Z1Mwq0OL2TPk">
    <mxGraphModel dx="880" dy="468" grid="1" gridSize="10" guides="1" tooltips="1" connect="1" arrows="1" fold="1" page="1" pageScale="1" pageWidth="827" pageHeight="1169" math="0" shadow="0">
      <root>
        <mxCell id="0" />
        <mxCell id="1" parent="0" />
        <mxCell id="s4MMqhH21jnIomVId06L-1" value="&lt;font style=&quot;font-size: 17px;&quot; face=&quot;Verdana&quot;&gt;&lt;b&gt;Ministerio De Justicia&amp;nbsp;&lt;/b&gt;&lt;/font&gt;" style="rounded=1;whiteSpace=wrap;html=1;fillColor=#bac8d3;strokeColor=#23445d;" vertex="1" parent="1">
          <mxGeometry x="299" y="80" width="230" height="50" as="geometry" />
        </mxCell>
        <mxCell id="s4MMqhH21jnIomVId06L-2" value="&lt;font style=&quot;font-size: 16px;&quot; face=&quot;Verdana&quot;&gt;Dirección de Tecnologías y Gestión de Información en Justicia&lt;/font&gt;" style="rounded=1;whiteSpace=wrap;html=1;fillColor=#bac8d3;strokeColor=#23445d;" vertex="1" parent="1">
          <mxGeometry x="100" y="160" width="259" height="60" as="geometry" />
        </mxCell>
        <mxCell id="s4MMqhH21jnIomVId06L-6" value="&lt;font style=&quot;font-size: 16px;&quot;&gt;Subdirección de Tecnologías y Sistemas de Información&lt;/font&gt;" style="rounded=1;whiteSpace=wrap;html=1;fillColor=#cce5ff;strokeColor=#36393d;fontFamily=Verdana;" vertex="1" parent="1">
          <mxGeometry x="100" y="250" width="259" height="60" as="geometry" />
        </mxCell>
        <mxCell id="s4MMqhH21jnIomVId06L-8" value="" style="endArrow=none;html=1;rounded=0;exitX=0.5;exitY=0;exitDx=0;exitDy=0;entryX=0.5;entryY=1;entryDx=0;entryDy=0;fontSize=12;strokeWidth=2;" edge="1" parent="1" source="s4MMqhH21jnIomVId06L-6" target="s4MMqhH21jnIomVId06L-2">
          <mxGeometry width="50" height="50" relative="1" as="geometry">
            <mxPoint x="216" y="230" as="sourcePoint" />
            <mxPoint x="266" y="180" as="targetPoint" />
          </mxGeometry>
        </mxCell>
        <mxCell id="s4MMqhH21jnIomVId06L-9" value="&lt;font style=&quot;font-size: 16px;&quot; face=&quot;Verdana&quot;&gt;Viceministerio de Política Criminal y Justicia Restaurativa&lt;/font&gt;" style="rounded=1;whiteSpace=wrap;html=1;fillColor=#bac8d3;strokeColor=#23445d;" vertex="1" parent="1">
          <mxGeometry x="480" y="160" width="259" height="60" as="geometry" />
        </mxCell>
        <mxCell id="s4MMqhH21jnIomVId06L-10" value="&lt;font style=&quot;font-size: 16px;&quot;&gt;Subdirección Estratégica y de Análisis&amp;nbsp;&lt;/font&gt;" style="rounded=1;whiteSpace=wrap;html=1;fillColor=#cce5ff;strokeColor=#36393d;fontFamily=Verdana;" vertex="1" parent="1">
          <mxGeometry x="480" y="250" width="259" height="60" as="geometry" />
        </mxCell>
        <mxCell id="s4MMqhH21jnIomVId06L-11" value="" style="endArrow=none;html=1;rounded=0;exitX=0.5;exitY=0;exitDx=0;exitDy=0;entryX=0.5;entryY=1;entryDx=0;entryDy=0;fontSize=12;strokeWidth=2;" edge="1" parent="1" source="s4MMqhH21jnIomVId06L-10" target="s4MMqhH21jnIomVId06L-9">
          <mxGeometry width="50" height="50" relative="1" as="geometry">
            <mxPoint x="596" y="230" as="sourcePoint" />
            <mxPoint x="646" y="180" as="targetPoint" />
          </mxGeometry>
        </mxCell>
        <mxCell id="s4MMqhH21jnIomVId06L-12" value="" style="endArrow=none;html=1;rounded=0;entryX=0;entryY=0.5;entryDx=0;entryDy=0;exitX=0.5;exitY=0;exitDx=0;exitDy=0;strokeWidth=2;" edge="1" parent="1" source="s4MMqhH21jnIomVId06L-2" target="s4MMqhH21jnIomVId06L-1">
          <mxGeometry width="50" height="50" relative="1" as="geometry">
            <mxPoint x="340" y="230" as="sourcePoint" />
            <mxPoint x="390" y="180" as="targetPoint" />
            <Array as="points">
              <mxPoint x="230" y="105" />
            </Array>
          </mxGeometry>
        </mxCell>
        <mxCell id="s4MMqhH21jnIomVId06L-13" value="" style="endArrow=none;html=1;rounded=0;entryX=1;entryY=0.5;entryDx=0;entryDy=0;exitX=0.5;exitY=0;exitDx=0;exitDy=0;strokeWidth=2;" edge="1" parent="1" source="s4MMqhH21jnIomVId06L-9" target="s4MMqhH21jnIomVId06L-1">
          <mxGeometry width="50" height="50" relative="1" as="geometry">
            <mxPoint x="360" y="210" as="sourcePoint" />
            <mxPoint x="410" y="160" as="targetPoint" />
            <Array as="points">
              <mxPoint x="610" y="105" />
            </Array>
          </mxGeometry>
        </mxCell>
        <mxCell id="s4MMqhH21jnIomVId06L-15" value="&lt;font style=&quot;font-size: 16px;&quot;&gt;Observatorio de Drogas&lt;/font&gt;" style="rounded=1;whiteSpace=wrap;html=1;fillColor=#cdeb8b;strokeColor=#36393d;fontFamily=Verdana;" vertex="1" parent="1">
          <mxGeometry x="284.5" y="390" width="259" height="60" as="geometry" />
        </mxCell>
        <mxCell id="s4MMqhH21jnIomVId06L-16" value="" style="endArrow=none;html=1;rounded=0;exitX=0;exitY=0.5;exitDx=0;exitDy=0;strokeWidth=2;" edge="1" parent="1" source="s4MMqhH21jnIomVId06L-15">
          <mxGeometry width="50" height="50" relative="1" as="geometry">
            <mxPoint x="180" y="360" as="sourcePoint" />
            <mxPoint x="230" y="310" as="targetPoint" />
            <Array as="points">
              <mxPoint x="230" y="420" />
            </Array>
          </mxGeometry>
        </mxCell>
        <mxCell id="s4MMqhH21jnIomVId06L-19" value="Plataforma tecnológica" style="edgeLabel;html=1;align=center;verticalAlign=middle;resizable=0;points=[];fontSize=14;fontFamily=Verdana;fontStyle=1" vertex="1" connectable="0" parent="s4MMqhH21jnIomVId06L-16">
          <mxGeometry x="0.4328" y="1" relative="1" as="geometry">
            <mxPoint as="offset" />
          </mxGeometry>
        </mxCell>
        <mxCell id="s4MMqhH21jnIomVId06L-17" value="" style="endArrow=none;html=1;rounded=0;exitX=1;exitY=0.5;exitDx=0;exitDy=0;entryX=0.5;entryY=1;entryDx=0;entryDy=0;strokeWidth=2;" edge="1" parent="1" source="s4MMqhH21jnIomVId06L-15" target="s4MMqhH21jnIomVId06L-10">
          <mxGeometry width="50" height="50" relative="1" as="geometry">
            <mxPoint x="560" y="390" as="sourcePoint" />
            <mxPoint x="610" y="340" as="targetPoint" />
            <Array as="points">
              <mxPoint x="610" y="420" />
            </Array>
          </mxGeometry>
        </mxCell>
        <mxCell id="s4MMqhH21jnIomVId06L-18" value="Administración" style="edgeLabel;html=1;align=center;verticalAlign=middle;resizable=0;points=[];fontSize=14;fontStyle=1;fontFamily=Verdana;" vertex="1" connectable="0" parent="s4MMqhH21jnIomVId06L-17">
          <mxGeometry x="0.197" y="-3" relative="1" as="geometry">
            <mxPoint y="-17" as="offset" />
          </mxGeometry>
        </mxCell>
      </root>
    </mxGraphModel>
  </diagram>
</mxfile>
